<svg xmlns="http://www.w3.org/2000/svg" viewBox="0 0 684 684">
    <title>kingston_developers</title>
    <g style="isolation:isolate">
        <g id="Base">
            <path d="M589.16,132.15a323.47,323.47,0,1,0,69.37,102.93A322.57,322.57,0,0,0,589.16,132.15Z" transform="translate(-18.06 -19.25)" fill="#003462"/>
            <path d="M360.06,37.25A324,324,0,0,1,486.23,659.72,324,324,0,0,1,233.89,62.79,322,322,0,0,1,360.06,37.25m0-18A342,342,0,0,0,226.88,676.3,342,342,0,0,0,493.24,46.21a340,340,0,0,0-133.18-27Z" transform="translate(-18.06 -19.25)" fill="#fff"/>
        </g>
        <g id="Text">
            <g id="Top_Text" data-name="Top Text">
                <g style="mix-blend-mode:multiply">
                    <path d="M124.13,337.34,71,327l1.83-9.38,25,4.88-22.26-19,2.13-10.94L101,313.37,130.83,303l-2.13,10.94L101,323.08,126,328Z" transform="translate(-18.06 -19.25)" fill="#c7c8ca"/>
                    <path d="M84.56,271.26l51.53,16.62L133.16,297,81.63,280.35Z" transform="translate(-18.06 -19.25)" fill="#c7c8ca"/>
                    <path d="M93.47,248.12l37-.18-30.26-14.23,4.07-8.65,49,23.05-4.06,8.64-37,.18,30.26,14.23-4.07,8.65-49-23.05Z" transform="translate(-18.06 -19.25)" fill="#c7c8ca"/>
                    <path d="M121.9,197.64q10-14.37,24.39-4.35l-5.47,7.84q-6.52-4.56-11.08,2t2,11.09l15.67,10.93q6.54,4.56,11.09-2t-2-11.09l-2.61-1.82-4.55,6.53-7.84-5.47,10-14.36L162,204.23q14.37,10,4.35,24.38T141.92,233L126.25,222Q111.88,212,121.9,197.64Z" transform="translate(-18.06 -19.25)" fill="#c7c8ca"/>
                    <path d="M167.13,200.44l6.63-6.87q4.59,4.43,10.12-1.31t.94-10.15q-3.9-3.77-10.11,1.31-12.19,11.25-23,.86-11.46-11.07,0-23t23-.86l-6.63,6.88q-4.59-4.42-9.45.62t-.29,9.46q3.9,3.76,9.45-.62,12.85-11.94,23.63-1.54,11.46,11.06-.71,23.66T167.13,200.44Z" transform="translate(-18.06 -19.25)" fill="#c7c8ca"/>
                    <path d="M198,121.62l5.84,7.57L193.79,137,221,172.28l-7.57,5.83L186.22,142.8l-10.08,7.78L170.3,143Z" transform="translate(-18.06 -19.25)" fill="#c7c8ca"/>
                    <path d="M219,109.21q15.24-8.64,23.87,6.6l9.43,16.62q8.64,15.24-6.6,23.88t-23.87-6.6l-9.43-16.62Q203.72,117.85,219,109.21Zm15.56,11.31q-3.92-6.93-10.85-3t-3,10.85L230.1,145q3.92,6.92,10.85,3t3-10.85Z" transform="translate(-18.06 -19.25)" fill="#c7c8ca"/>
                    <path d="M256.24,91.28l26.38,26L271.21,85.85l9-3.26,18.48,50.89-9,3.26-26.37-26,11.41,31.43-9,3.26L247.26,94.54Z" transform="translate(-18.06 -19.25)" fill="#c7c8ca"/>
                    <path d="M339.11,72q19-1.53,20.58,17.52L361,105.37q1.53,19-17.52,20.57l-15.87,1.28-4.33-54Zm3.57,44.45q9.52-.77,8.76-10.29l-1.28-15.87q-.77-9.53-10.28-8.76l-6.35.51,2.8,34.92Z" transform="translate(-18.06 -19.25)" fill="#c7c8ca"/>
                    <path d="M401.83,72.82l-.7,9.53-20.65-1.53-.94,12.7L397,94.81l-.7,9.53-17.47-1.29-.94,12.71,20.65,1.52-.71,9.53-30.17-2.23,4-54Z" transform="translate(-18.06 -19.25)" fill="#c7c8ca"/>
                    <path d="M412,129.57l-1.65-55.91,9.93,2.27.42,44.84,19.77-40.25,9.94,2.26-26,49.61Z" transform="translate(-18.06 -19.25)" fill="#c7c8ca"/>
                    <path d="M487.46,97.08,483.94,106l-19.25-7.62L460,110.2l16.29,6.44-3.52,8.89-16.29-6.44-4.68,11.84,19.25,7.61-3.51,8.89L439.41,136.3,459.32,86Z" transform="translate(-18.06 -19.25)" fill="#c7c8ca"/>
                    <path d="M474.73,150.9l27.77-46.48,8.21,4.9L487.84,147.6,507,159l-4.9,8.2Z" transform="translate(-18.06 -19.25)" fill="#c7c8ca"/>
                    <path d="M554.45,139.79q13.42,11.25,2.18,24.68l-12.27,14.65q-11.24,13.42-24.67,2.18t-2.19-24.67L529.77,142Q541,128.54,554.45,139.79Zm-5.15,18.54q5.12-6.11-1-11.21t-11.22,1l-12.26,14.65q-5.12,6.11,1,11.22T537,173Z" transform="translate(-18.06 -19.25)" fill="#c7c8ca"/>
                    <path d="M590.8,176q11.3,13.38-2.09,24.68T564,198.6l-5.13-6.08-14.61,12.32-6.16-7.3,41.38-34.92Zm-19.47,16.43q5.14,6.09,11.22.95t1-11.22l-5.13-6.08L566.2,186.36Z" transform="translate(-18.06 -19.25)" fill="#c7c8ca"/>
                    <path d="M624.82,225l-8.14,5-10.83-17.64L595,219,604.15,234,596,239,586.85,224,576,230.7l10.83,17.64-8.14,5-15.83-25.79L609,199.23Z" transform="translate(-18.06 -19.25)" fill="#c7c8ca"/>
                    <path d="M639.12,256.2q6.55,16.24-9.7,22.8-10.33,4.15-16.73-.89l-17.24,14.57-3.81-9.45,15.37-13-3.36-8.33-17.72,7.14-3.57-8.86L632.58,240Zm-23.63,9.52q3,7.39,10.36,4.41t4.41-10.36l-3-7.38-14.77,5.95Z" transform="translate(-18.06 -19.25)" fill="#c7c8ca"/>
                    <path d="M612.39,293.74l2.06,9.33c-4.14.92-5.64,4-4.5,9.15s3.79,7.31,7.94,6.4c3.52-.78,5-3.83,4.5-9.15q-2.64-16.38,12-19.61,15.54-3.44,19.12,12.74t-12,19.6l-2.06-9.32q6.22-1.38,4.71-8.22t-7.73-5.47q-5.29,1.17-4.71,8.22Q634.57,324.72,620,328q-15.56,3.44-19.33-13.67T612.39,293.74Z" transform="translate(-18.06 -19.25)" fill="#c7c8ca"/>
                </g>
                <path d="M122,333.74,68.82,323.38,70.65,314l25,4.88L73.4,299.93,75.53,289l23.33,20.78,29.81-10.42-2.13,10.94-27.75,9.19,25,4.88Z" transform="translate(-18.06 -19.25)" fill="#fff"/>
                <path d="M82.4,267.66l51.53,16.62L131,293.37,79.47,276.75Z" transform="translate(-18.06 -19.25)" fill="#fff"/>
                <path d="M91.31,244.52l37-.18L98.09,230.11l4.07-8.65,49,23-4.07,8.64-37,.18,30.26,14.23-4.07,8.65-49-23Z" transform="translate(-18.06 -19.25)" fill="#fff"/>
                <path d="M119.74,194q10-14.37,24.39-4.35l-5.47,7.84q-6.53-4.56-11.08,2t2,11.09l15.67,10.93q6.54,4.56,11.09-2t-2-11.09l-2.61-1.82-4.55,6.53-7.84-5.47,10-14.36,10.45,7.29q14.37,10,4.35,24.38t-24.39,4.35l-15.68-10.93Q109.73,208.41,119.74,194Z" transform="translate(-18.06 -19.25)" fill="#fff"/>
                <path d="M165,196.84,171.6,190q4.59,4.42,10.12-1.31t.94-10.15q-3.9-3.76-10.11,1.31-12.2,11.25-23,.86-11.46-11.07,0-23t23-.86L166,163.72q-4.59-4.42-9.45.62t-.29,9.46q3.9,3.76,9.45-.62,12.86-11.94,23.63-1.54,11.46,11.06-.71,23.66T165,196.84Z" transform="translate(-18.06 -19.25)" fill="#fff"/>
                <path d="M195.88,118l5.84,7.57-10.09,7.78,27.23,35.31-7.57,5.83L184.06,139.2,174,147l-5.84-7.56Z" transform="translate(-18.06 -19.25)" fill="#fff"/>
                <path d="M216.8,105.61Q232,97,240.67,112.21l9.43,16.62q8.64,15.24-6.6,23.88t-23.88-6.6l-9.42-16.62Q201.56,114.25,216.8,105.61Zm15.56,11.31q-3.92-6.93-10.85-3t-3,10.85l9.43,16.63q3.92,6.91,10.85,3t3-10.85Z" transform="translate(-18.06 -19.25)" fill="#fff"/>
                <path d="M254.08,87.68l26.38,26L269.05,82.25,278,79l18.48,50.89-9,3.26-26.37-26,11.41,31.43-9,3.26L245.1,90.94Z" transform="translate(-18.06 -19.25)" fill="#fff"/>
                <path d="M337,68.37Q356,66.84,357.53,85.89l1.27,15.88q1.53,19-17.52,20.57l-15.87,1.28-4.33-54Zm3.57,44.45q9.53-.76,8.76-10.29L348,86.66q-.76-9.52-10.28-8.76l-6.35.51,2.8,34.92Z" transform="translate(-18.06 -19.25)" fill="#fff"/>
                <path d="M399.67,69.22l-.7,9.53-20.65-1.53-.94,12.7,17.47,1.29-.7,9.53-17.47-1.29-.94,12.71,20.65,1.52-.71,9.53L365.51,121l4-54Z" transform="translate(-18.06 -19.25)" fill="#fff"/>
                <path d="M409.85,126,408.2,70.06l9.93,2.27.42,44.84,19.77-40.25,9.94,2.26-26,49.61Z" transform="translate(-18.06 -19.25)" fill="#fff"/>
                <path d="M485.3,93.48l-3.52,8.89-19.25-7.62-4.68,11.85L474.14,113l-3.52,8.89-16.29-6.44-4.68,11.84,19.25,7.61-3.51,8.89L437.25,132.7l19.91-50.34Z" transform="translate(-18.06 -19.25)" fill="#fff"/>
                <path d="M472.57,147.3l27.77-46.48,8.2,4.9L485.68,144l19.13,11.44-4.9,8.2Z" transform="translate(-18.06 -19.25)" fill="#fff"/>
                <path d="M552.29,136.19q13.43,11.25,2.18,24.68L542.2,175.52Q531,188.95,517.53,177.7T515.34,153l12.27-14.65Q538.86,124.94,552.29,136.19Zm-5.15,18.54q5.11-6.1-1-11.21t-11.22,1l-12.26,14.65q-5.11,6.1,1,11.22t11.22-1Z" transform="translate(-18.06 -19.25)" fill="#fff"/>
                <path d="M588.64,172.41q11.29,13.38-2.09,24.68T561.87,195l-5.13-6.08-14.61,12.32-6.16-7.3L577.35,159Zm-19.47,16.43q5.15,6.09,11.22.95t1-11.22l-5.13-6.08L564,182.76Z" transform="translate(-18.06 -19.25)" fill="#fff"/>
                <path d="M622.66,221.41l-8.14,5-10.83-17.64-10.86,6.66L602,230.36l-8.14,5-9.16-14.93-10.86,6.67,10.83,17.64-8.14,5L560.69,224l46.14-28.32Z" transform="translate(-18.06 -19.25)" fill="#fff"/>
                <path d="M637,252.6q6.56,16.25-9.7,22.8-10.34,4.16-16.73-.89l-17.24,14.57-3.81-9.45,15.37-13-3.36-8.33-17.72,7.14-3.57-8.86,50.22-20.24Zm-23.63,9.52q3,7.39,10.36,4.41t4.41-10.36l-3-7.38-14.77,6Z" transform="translate(-18.06 -19.25)" fill="#fff"/>
                <path d="M610.23,290.14l2.06,9.33c-4.14.92-5.64,4-4.5,9.15s3.79,7.31,7.94,6.4q5.28-1.17,4.5-9.15-2.64-16.38,12-19.61,15.54-3.43,19.12,12.74t-12,19.6l-2.06-9.33q6.23-1.36,4.71-8.21t-7.73-5.47q-5.29,1.17-4.71,8.22,2.85,17.31-11.77,20.54-15.56,3.43-19.33-13.67T610.23,290.14Z" transform="translate(-18.06 -19.25)" fill="#fff"/>
            </g>
        </g>
        <g id="Inner">
            <g style="mix-blend-mode:multiply">
                <path d="M164.76,320a9.18,9.18,0,0,1-2.36-.32,9,9,0,0,1-6.33-11.05c25.21-92.7,110-157.45,206.15-157.45S543.16,216,568.37,308.67A9,9,0,1,1,551,313.39c-23.08-84.88-100.71-144.17-188.78-144.17s-165.7,59.29-188.78,144.17A9,9,0,0,1,164.76,320Z" transform="translate(-18.06 -19.25)" fill="#c7c8ca"/>
            </g>
            <path d="M162.6,316.44a9.18,9.18,0,0,1-2.36-.32,9,9,0,0,1-6.33-11.05c25.21-92.7,110-157.45,206.15-157.45S541,212.37,566.21,305.07a9,9,0,1,1-17.37,4.72c-23.08-84.88-100.71-144.17-188.78-144.17s-165.7,59.29-188.78,144.17A9,9,0,0,1,162.6,316.44Z" transform="translate(-18.06 -19.25)" fill="#fff"/>
            <g style="mix-blend-mode:multiply">
                <path d="M362.22,578.48A211.56,211.56,0,0,1,231.59,533.9a215.06,215.06,0,0,1-75.42-112.49,9,9,0,1,1,17.36-4.75,197,197,0,0,0,69.07,103,195.68,195.68,0,0,0,239.24,0,197,197,0,0,0,69.07-103,9,9,0,1,1,17.36,4.75A215.06,215.06,0,0,1,492.85,533.9,211.54,211.54,0,0,1,362.22,578.48Z" transform="translate(-18.06 -19.25)" fill="#c7c8ca"/>
            </g>
            <path d="M360.06,574.88A211.56,211.56,0,0,1,229.43,530.3,215.06,215.06,0,0,1,154,417.81a9,9,0,1,1,17.36-4.75,197,197,0,0,0,69.07,103,195.68,195.68,0,0,0,239.24,0,197,197,0,0,0,69.07-103,9,9,0,1,1,17.36,4.75A215.06,215.06,0,0,1,490.69,530.3,211.56,211.56,0,0,1,360.06,574.88Z" transform="translate(-18.06 -19.25)" fill="#fff"/>
            <g style="mix-blend-mode:multiply">
                <circle cx="145.26" cy="345.54" r="18" fill="#c7c8ca"/>
            </g>
            <circle cx="143.1" cy="341.94" r="18" fill="#fff"/>
            <g style="mix-blend-mode:multiply">
                <circle cx="541.77" cy="345.54" r="18" fill="#c7c8ca"/>
            </g>
            <circle cx="539.61" cy="341.94" r="18" fill="#fff"/>
        </g>
        <g id="Logo">
            <g style="mix-blend-mode:multiply">
                <path d="M383.2,395.07c0-16.31-6.25-17.94-13.05-17.94-9,0-13-6.53-13-13.05s4.08-13.06,13-13.06c6.8,0,13.05-1.63,13.05-17.94v-55.2c0-24.74,12.51-35.62,36.17-35.62h20.12c7.07,0,12.23,4.08,12.23,12.24s-5.16,12.23-12.23,12.23h-6.8c-7.61,0-12,4.62-12,15.77v53.84c0,24.74-19.85,26.65-29.37,27.46v.55c9.52.81,29.37,2.72,29.37,27.46v53.84c0,11.15,4.35,15.77,12,15.77h6.8c7.07,0,12.23,4.08,12.23,12.23s-5.16,12.24-12.23,12.24H419.37c-23.66,0-36.17-10.88-36.17-35.62Z" transform="translate(-18.06 -19.25)" fill="#c7c8ca"/>
                <path d="M285.76,486.09h0a18.8,18.8,0,0,1-13.44-22.86l54-206.42a18.8,18.8,0,0,1,22.86-13.44h0a18.8,18.8,0,0,1,13.44,22.86l-54,206.42A18.8,18.8,0,0,1,285.76,486.09Z" transform="translate(-18.06 -19.25)" fill="#c7c8ca"/>
            </g>
            <path d="M381,391.47c0-16.31-6.25-17.94-13.05-17.94-9,0-13.05-6.53-13.05-13S359,347.42,368,347.42c6.8,0,13.05-1.63,13.05-17.94v-55.2c0-24.74,12.51-35.62,36.17-35.62h20.12c7.07,0,12.23,4.08,12.23,12.24s-5.16,12.23-12.23,12.23h-6.8c-7.61,0-12,4.62-12,15.77v53.84c0,24.74-19.85,26.65-29.37,27.46v.55c9.52.81,29.37,2.72,29.37,27.46v53.84c0,11.15,4.35,15.77,12,15.77h6.8c7.07,0,12.23,4.08,12.23,12.23s-5.16,12.24-12.23,12.24H417.21c-23.66,0-36.17-10.88-36.17-35.62Z" transform="translate(-18.06 -19.25)" fill="#fff"/>
            <path d="M283.6,482.49h0a18.8,18.8,0,0,1-13.44-22.86l54-206.42A18.8,18.8,0,0,1,347,239.77h0a18.8,18.8,0,0,1,13.44,22.86l-54,206.42A18.8,18.8,0,0,1,283.6,482.49Z" transform="translate(-18.06 -19.25)" fill="#fff"/>
        </g>
    </g>
</svg>