<svg xmlns="http://www.w3.org/2000/svg" viewBox="120 120 445 445">
    <title>kingston_developers</title>
    <g style="isolation:isolate">
        <g id="Inner">
            <g style="mix-blend-mode:multiply">
                <path d="M164.76,320a9.18,9.18,0,0,1-2.36-.32,9,9,0,0,1-6.33-11.05c25.21-92.7,110-157.45,206.15-157.45S543.16,216,568.37,308.67A9,9,0,1,1,551,313.39c-23.08-84.88-100.71-144.17-188.78-144.17s-165.7,59.29-188.78,144.17A9,9,0,0,1,164.76,320Z" transform="translate(-18.06 -19.25)" fill="#c7c8ca"/>
            </g>
            <path d="M162.6,316.44a9.18,9.18,0,0,1-2.36-.32,9,9,0,0,1-6.33-11.05c25.21-92.7,110-157.45,206.15-157.45S541,212.37,566.21,305.07a9,9,0,1,1-17.37,4.72c-23.08-84.88-100.71-144.17-188.78-144.17s-165.7,59.29-188.78,144.17A9,9,0,0,1,162.6,316.44Z" transform="translate(-18.06 -19.25)" fill="#fff"/>
            <g style="mix-blend-mode:multiply">
                <path d="M362.22,578.48A211.56,211.56,0,0,1,231.59,533.9a215.06,215.06,0,0,1-75.42-112.49,9,9,0,1,1,17.36-4.75,197,197,0,0,0,69.07,103,195.68,195.68,0,0,0,239.24,0,197,197,0,0,0,69.07-103,9,9,0,1,1,17.36,4.75A215.06,215.06,0,0,1,492.85,533.9,211.54,211.54,0,0,1,362.22,578.48Z" transform="translate(-18.06 -19.25)" fill="#c7c8ca"/>
            </g>
            <path d="M360.06,574.88A211.56,211.56,0,0,1,229.43,530.3,215.06,215.06,0,0,1,154,417.81a9,9,0,1,1,17.36-4.75,197,197,0,0,0,69.07,103,195.68,195.68,0,0,0,239.24,0,197,197,0,0,0,69.07-103,9,9,0,1,1,17.36,4.75A215.06,215.06,0,0,1,490.69,530.3,211.56,211.56,0,0,1,360.06,574.88Z" transform="translate(-18.06 -19.25)" fill="#fff"/>
            <g style="mix-blend-mode:multiply">
                <circle cx="145.26" cy="345.54" r="18" fill="#c7c8ca"/>
            </g>
            <circle cx="143.1" cy="341.94" r="18" fill="#fff"/>
            <g style="mix-blend-mode:multiply">
                <circle cx="541.77" cy="345.54" r="18" fill="#c7c8ca"/>
            </g>
            <circle cx="539.61" cy="341.94" r="18" fill="#fff"/>
        </g>
        <g id="Logo">
            <g style="mix-blend-mode:multiply">
                <path d="M383.2,395.07c0-16.31-6.25-17.94-13.05-17.94-9,0-13-6.53-13-13.05s4.08-13.06,13-13.06c6.8,0,13.05-1.63,13.05-17.94v-55.2c0-24.74,12.51-35.62,36.17-35.62h20.12c7.07,0,12.23,4.08,12.23,12.24s-5.16,12.23-12.23,12.23h-6.8c-7.61,0-12,4.62-12,15.77v53.84c0,24.74-19.85,26.65-29.37,27.46v.55c9.52.81,29.37,2.72,29.37,27.46v53.84c0,11.15,4.35,15.77,12,15.77h6.8c7.07,0,12.23,4.08,12.23,12.23s-5.16,12.24-12.23,12.24H419.37c-23.66,0-36.17-10.88-36.17-35.62Z" transform="translate(-18.06 -19.25)" fill="#c7c8ca"/>
                <path d="M285.76,486.09h0a18.8,18.8,0,0,1-13.44-22.86l54-206.42a18.8,18.8,0,0,1,22.86-13.44h0a18.8,18.8,0,0,1,13.44,22.86l-54,206.42A18.8,18.8,0,0,1,285.76,486.09Z" transform="translate(-18.06 -19.25)" fill="#c7c8ca"/>
            </g>
            <path d="M381,391.47c0-16.31-6.25-17.94-13.05-17.94-9,0-13.05-6.53-13.05-13S359,347.42,368,347.42c6.8,0,13.05-1.63,13.05-17.94v-55.2c0-24.74,12.51-35.62,36.17-35.62h20.12c7.07,0,12.23,4.08,12.23,12.24s-5.16,12.23-12.23,12.23h-6.8c-7.61,0-12,4.62-12,15.77v53.84c0,24.74-19.85,26.65-29.37,27.46v.55c9.52.81,29.37,2.72,29.37,27.46v53.84c0,11.15,4.35,15.77,12,15.77h6.8c7.07,0,12.23,4.08,12.23,12.23s-5.16,12.24-12.23,12.24H417.21c-23.66,0-36.17-10.88-36.17-35.62Z" transform="translate(-18.06 -19.25)" fill="#fff"/>
            <path d="M283.6,482.49h0a18.8,18.8,0,0,1-13.44-22.86l54-206.42A18.8,18.8,0,0,1,347,239.77h0a18.8,18.8,0,0,1,13.44,22.86l-54,206.42A18.8,18.8,0,0,1,283.6,482.49Z" transform="translate(-18.06 -19.25)" fill="#fff"/>
        </g>
    </g>
</svg>